<svg xmlns="http://www.w3.org/2000/svg" viewBox="0 0 1268.1 535.41"><defs><style>.cls-1{fill:#010101;}</style></defs><title>Asset 11x</title><g id="Layer_2" data-name="Layer 2"><g id="Layer_1-2" data-name="Layer 1"><path class="cls-1" d="M347.8,26.56C315.66,8.94,278.36,0,236.94,0c-41.25,0-78.45,8.94-110.56,26.57-29.23,16-54.14,39.2-74,68.81C18.59,145.64,0,214,0,287.86,0,327.68,6.19,364,18.4,395.71c11.74,30.51,29,56.82,51.27,78.17,21.27,20.38,46.83,36,76,46.45,27.92,10,58.63,15.07,91.28,15.07,32.44,0,63.28-5.52,91.66-16.4a218.81,218.81,0,0,0,75.79-48.47c45.46-44.79,69.5-108,69.5-182.68,0-74-18.49-142.34-52.07-192.45C402,65.77,377.06,42.61,347.8,26.56Zm89.62,261.29c0,30.71-4.57,59-13.46,84.38-7.81-15.51-15.29-39.05-15.29-72.36,0-28.7,7.53-53.81,22.37-74.64l1.11-1.52A384.79,384.79,0,0,1,437.42,287.86Zm-65.21,12a237.42,237.42,0,0,0,1.49,26.77L344,356.36l-51.42-51.42-51.42,51.42-51.42-51.42L138.3,356.36l-34.93-34.93c.63-7,1-14.23,1-21.56,0-67.31-33.88-105.35-51.76-120.74a269.21,269.21,0,0,1,16.8-40.91,77.18,77.18,0,0,0,116.87,57.17l37.46,37.46,14.57,14.76,14.57-14.76,37.46-37.46A77.18,77.18,0,0,0,406.64,142,273.1,273.1,0,0,1,422,180.88C403.69,197.3,372.21,235,372.21,299.87ZM51.31,374.72c-.36.66-.71,1.29-1.06,1.92-9.15-26.16-13.79-56-13.79-88.79a380.46,380.46,0,0,1,5.8-67c.76,1,1.53,2,2.29,3C60,245,67.88,270.53,67.88,299.87,67.88,336.21,58.87,360.64,51.31,374.72Zm94.78-204.51a40.76,40.76,0,1,1,40.76-40.76A40.81,40.81,0,0,1,146.09,170.22Zm225.13-40.76a40.76,40.76,0,1,1-40.76-40.76A40.81,40.81,0,0,1,371.22,129.45ZM319.36,53a77.18,77.18,0,0,0-54.84,116.57l-26.25,26.25L212,169.61a77.17,77.17,0,0,0-56.61-116.8c24-10.85,51.39-16.35,81.53-16.35Q283,36.46,319.36,53ZM378.8,444.57A182.57,182.57,0,0,1,315.54,485c-24.2,9.28-50.65,14-78.6,14-57.84,0-107-17.77-142-51.39a169.22,169.22,0,0,1-26.67-33,128.63,128.63,0,0,0,13.82-20.07,159.44,159.44,0,0,0,12.84-30l28.63,28.63,14.76,15,14.76-15,36.66-36.66,36.66,36.66,14.76,15,14.77-15,36.65-36.65,36.66,36.66,14.76,15,14.76-15,24.32-24.32a157,157,0,0,0,11.43,25.64,132,132,0,0,0,11,16.59A180.19,180.19,0,0,1,378.8,444.57Z"/><path class="cls-1" d="M617.76,101.52c-42.57,0-72.75,30.18-72.75,71.38,0,15.11,4.07,28.73,11.32,39.93L532,237.12l24.68,24.68,25.63-25.63a77.87,77.87,0,0,0,35.41,8.1c42.57,0,72.75-30.18,72.75-71.38S660.33,101.52,617.76,101.52Zm0,107c-20.06,0-33.92-14.65-33.92-35.59s13.86-35.59,33.92-35.59S651.68,152,651.68,172.9,637.82,208.49,617.76,208.49Z"/><path class="cls-1" d="M761.69,210.85c-21,0-34-7.67-45-14.16l-18.29,30.48c15.83,11.31,38,17.11,62.82,17.11,29.3,0,58.69-12.78,58.69-47.68,0-21.24-14.26-34.8-42.87-40.31l-4.42-.89c-14.06-2.56-28.12-3.64-28.12-11.31,0-6.19,7.77-8.95,17.7-8.95,17.11,0,30.48,6.49,39.72,11.5L818,116.08c-23.89-12.58-40.11-14.45-58.1-14.45-33.13,0-55.06,17.6-55.84,43.95-.79,24.48,12.49,37.95,44.14,43.46l5.21.88c17,2.85,25.66,4.33,25.66,11.4C779.09,208.1,771.62,210.85,761.69,210.85Z"/><path class="cls-1" d="M888.12,210.85c-21,0-34-7.67-45-14.16l-18.29,30.48c15.83,11.31,38,17.11,62.82,17.11,29.3,0,58.69-12.78,58.69-47.68,0-21.24-14.26-34.8-42.87-40.31L899,155.4c-14.06-2.56-28.12-3.64-28.12-11.31,0-6.19,7.77-8.95,17.7-8.95,17.11,0,30.48,6.49,39.72,11.5l16.12-30.58c-23.89-12.58-40.11-14.45-58.1-14.45-33.13,0-55.06,17.6-55.84,43.95-.79,24.48,12.49,37.95,44.14,43.46l5.21.88c17,2.85,25.66,4.33,25.66,11.4C905.53,208.1,898.05,210.85,888.12,210.85Z"/><polygon class="cls-1" points="549.93 438.45 587.29 438.45 587.29 388.41 651.58 388.41 651.58 355.18 587.29 355.18 587.29 334.04 656.5 334.04 656.5 300.81 549.93 300.81 549.93 438.45"/><rect class="cls-1" x="672.23" y="300.81" width="37.36" height="137.64"/><polygon class="cls-1" points="822.35 378.18 765.62 300.81 729.25 300.81 729.25 438.45 766.61 438.45 766.61 361.07 823.33 438.45 859.71 438.45 859.71 300.81 822.35 300.81 822.35 378.18"/><path class="cls-1" d="M940.13,300.81H879.37V438.45h60.76c43,0,71.38-27.33,71.38-68.82S983.09,300.81,940.13,300.81Zm-1,103.33H916.73v-69h22.42c22.51,0,33.53,14.35,33.53,34.51C972.67,389.49,961.66,404.14,939.14,404.14Z"/><polygon class="cls-1" points="1026.25 438.45 1133.81 438.45 1133.81 405.22 1063.61 405.22 1063.61 385.46 1128.89 385.46 1128.89 352.23 1063.61 352.23 1063.61 334.04 1133.81 334.04 1133.81 300.81 1026.25 300.81 1026.25 438.45"/><path class="cls-1" d="M1230.64,387.91c23.3-4.72,35.59-20.06,35.59-41.29,0-27.82-18.39-45.82-53.39-45.82H1151.5V438.45h37.36V389.59h2.06l33.13,48.86h44Zm-18.19-29.1h-23.6V334.33h23.6c9.14,0,16,3.93,16,12.29S1221.6,358.81,1212.45,358.81Z"/></g></g></svg>