<svg xmlns="http://www.w3.org/2000/svg" viewBox="0 0 891.11 259.59"><defs><style>.cls-1{fill:#010101;}</style></defs><title>oss_typelogo_021x</title><g id="Layer_2" data-name="Layer 2"><g id="Layer_1-2" data-name="Layer 1"><polygon class="cls-1" points="74.33 121.19 107.1 88.42 69.91 51.23 0 121.15 0.04 121.19 0 121.22 69.91 191.13 107.1 153.95 74.33 121.19"/><polygon class="cls-1" points="891.11 121.15 821.2 51.23 784.01 88.42 816.78 121.19 784.01 153.95 821.2 191.13 891.11 121.22 891.07 121.19 891.11 121.15"/><path class="cls-1" d="M249.58,0a110.92,110.92,0,0,0-94.75,168.66L101,222.54l37,37,53.88-53.88A111,111,0,1,0,249.58,0Zm0,169.54A58.57,58.57,0,1,1,308.15,111,58.64,58.64,0,0,1,249.58,169.54Z"/><path class="cls-1" d="M483,84.75l-6.85-1.37c-21.77-4-43.54-5.63-43.54-17.51,0-9.59,12-13.85,27.4-13.85,26.49,0,47.19,10,61.5,17.81l25-47.34C509.46,3,484.34.11,456.48.11c-51.3,0-85.25,27.25-86.47,68-1.22,37.91,19.33,58.76,68.35,67.29l8.07,1.37c26.34,4.41,39.73,6.7,39.73,17.66,0,10.5-11.57,14.77-26.95,14.77-32.58,0-52.67-11.87-69.72-21.92l-28.32,47.19C385.69,212,420.1,221,458.46,221c45.37,0,90.88-19.79,90.88-73.83C549.35,114.28,527.27,93.28,483,84.75Z"/><path class="cls-1" d="M681.35,84.75l-6.85-1.37c-21.77-4-43.54-5.63-43.54-17.51C631,56.28,643,52,658.36,52c26.49,0,47.19,10,61.5,17.81l25-47.34C707.84,3,682.72.11,654.86.11c-51.3,0-85.25,27.25-86.47,68-1.22,37.91,19.33,58.76,68.35,67.29l8.07,1.37c26.34,4.41,39.73,6.7,39.73,17.66,0,10.5-11.57,14.77-26.95,14.77-32.58,0-52.67-11.87-69.72-21.92l-28.32,47.19C584.07,212,618.48,221,656.84,221c45.37,0,90.88-19.79,90.88-73.83C747.72,114.28,725.65,93.28,681.35,84.75Z"/></g></g></svg>