<svg xmlns="http://www.w3.org/2000/svg" viewBox="0 0 878.87 992.99"><defs><style>.cls-1{fill:#010101;}</style></defs><title>oss owl1x</title><g id="Layer_2" data-name="Layer 2"><g id="Layer_1-2" data-name="Layer 1"><path class="cls-1" d="M645,49.27C585.42,16.58,516.25,0,439.44,0c-76.51,0-145.5,16.58-205.05,49.27C180.17,79,134,122,97.09,176.9,34.48,270.11,0,396.88,0,533.87,0,607.72,11.48,675,34.13,733.9c21.77,56.59,53.76,105.37,95.09,145,39.44,37.8,86.85,66.79,140.92,86.16,51.78,18.55,108.74,28,169.29,28,60.16,0,117.35-10.24,170-30.42C663,942,710.28,911.78,750,872.68c84.32-83.06,128.89-200.22,128.89-338.81,0-137.22-34.29-264-96.56-356.93C745.49,122,699.3,79,645,49.27Zm166.22,484.6c0,57-8.47,109.5-25,156.49-14.49-28.77-28.36-72.43-28.36-134.21,0-53.22,14-99.8,41.49-138.42q1-1.44,2.05-2.83A713.64,713.64,0,0,1,811.25,533.87ZM690.32,556.15a440.33,440.33,0,0,0,2.76,49.66L638,660.92,542.6,565.55l-95.37,95.37-95.37-95.37-95.37,95.37-64.78-64.78c1.18-13,1.8-26.39,1.8-40,0-124.83-62.83-195.39-96-223.93a499.28,499.28,0,0,1,31.16-75.87c8.1,71.34,68.8,127,142.27,127a142.35,142.35,0,0,0,74.47-20.93l69.47,69.47,27,27.38,27-27.38,69.47-69.47a142.35,142.35,0,0,0,74.47,20.93c71,0,130.1-52,141.29-119.87a506.51,506.51,0,0,1,28.45,72C748.7,365.91,690.32,435.81,690.32,556.15ZM95.16,695c-.66,1.23-1.32,2.39-2,3.56C76.23,650,67.62,594.7,67.62,533.87A705.61,705.61,0,0,1,78.37,409.7c1.41,1.79,2.83,3.64,4.25,5.57,28.71,39.06,43.27,86.46,43.27,140.88C125.89,623.55,109.18,668.85,95.16,695ZM270.95,315.69a75.6,75.6,0,1,1,75.6-75.6A75.69,75.69,0,0,1,270.95,315.69Zm417.53-75.6a75.6,75.6,0,1,1-75.6-75.6A75.69,75.69,0,0,1,688.48,240.09ZM592.3,98.37c-69.25,10-122.64,69.74-122.64,141.72a142.35,142.35,0,0,0,20.93,74.47l-48.68,48.68-48.68-48.68a142.35,142.35,0,0,0,20.93-74.47C414.17,167,359.08,106.52,288.24,98c44.57-20.12,95.3-30.33,151.2-30.33Q524.88,67.62,592.3,98.37ZM702.53,824.5c-33,32.53-72.5,57.74-117.31,74.93s-93.93,25.94-145.78,25.94c-107.27,0-198.36-33-263.43-95.31a313.85,313.85,0,0,1-49.46-61.23,238.56,238.56,0,0,0,25.64-37.22A295.7,295.7,0,0,0,176,676.06l53.1,53.1,27.38,27.75,27.38-27.75,68-68,68,68,27.37,27.74,27.39-27.76,68-68,68,68L638,756.91l27.37-27.74,45.11-45.11a291.17,291.17,0,0,0,21.19,47.55A244.73,244.73,0,0,0,752,762.37,334.19,334.19,0,0,1,702.53,824.5Z"/></g></g></svg>