<svg xmlns="http://www.w3.org/2000/svg" viewBox="0 0 891.95 362.29"><defs><style>.cls-1{fill:#010101;}</style></defs><title>oss_tylogo_011x</title><g id="Layer_2" data-name="Layer 2"><g id="Layer_1-2" data-name="Layer 1"><path class="cls-1" d="M92.17,0C46.4,0,13.94,32.45,13.94,76.75c0,16.25,4.37,30.9,12.16,42.95L0,145.8l26.54,26.54,27.55-27.55a83.74,83.74,0,0,0,38.08,8.71c45.78,0,78.23-32.45,78.23-76.75S137.95,0,92.17,0Zm0,115C70.61,115,55.7,99.27,55.7,76.75S70.61,38.48,92.17,38.48s36.47,15.75,36.47,38.27S113.74,115,92.17,115Z"/><path class="cls-1" d="M246.94,117.56c-22.62,0-36.58-8.25-48.42-15.22l-19.66,32.77c17,12.16,40.91,18.39,67.55,18.39,31.5,0,63.11-13.74,63.11-51.27,0-22.83-15.33-37.42-46.09-43.34l-4.76-1c-15.12-2.75-30.24-3.91-30.24-12.16,0-6.66,8.35-9.62,19-9.62,18.39,0,32.77,7,42.71,12.37l17.34-32.88C281.82,2.11,264.38.11,245,.11c-35.63,0-59.2,18.92-60,47.26-.85,26.32,13.43,40.81,47.47,46.73l5.6,1c18.29,3.07,27.59,4.65,27.59,12.26C265.65,114.6,257.61,117.56,246.94,117.56Z"/><path class="cls-1" d="M382.89,117.56c-22.62,0-36.58-8.25-48.42-15.22L314.8,135.11c17,12.16,40.91,18.39,67.55,18.39,31.5,0,63.11-13.74,63.11-51.27,0-22.83-15.33-37.42-46.09-43.34l-4.76-1C379.5,55.18,364.39,54,364.39,45.78c0-6.66,8.35-9.62,19-9.62,18.39,0,32.77,7,42.71,12.37l17.34-32.88C417.77,2.11,400.33.11,381,.11c-35.63,0-59.2,18.92-60,47.26-.85,26.32,13.43,40.81,47.47,46.73l5.6,1c18.29,3.07,27.59,4.65,27.59,12.26C401.6,114.6,393.56,117.56,382.89,117.56Z"/><polygon class="cls-1" points="19.23 362.29 59.4 362.29 59.4 308.48 128.54 308.48 128.54 272.74 59.4 272.74 59.4 250.01 133.83 250.01 133.83 214.28 19.23 214.28 19.23 362.29"/><rect class="cls-1" x="150.74" y="214.28" width="40.17" height="148"/><polygon class="cls-1" points="312.16 297.48 251.16 214.28 212.05 214.28 212.05 362.29 252.22 362.29 252.22 279.09 313.22 362.29 352.33 362.29 352.33 214.28 312.16 214.28 312.16 297.48"/><path class="cls-1" d="M438.8,214.28H373.47v148H438.8c46.2,0,76.75-29.39,76.75-74S485,214.28,438.8,214.28Zm-1.06,111.11h-24.1V251.18h24.1c24.21,0,36,15.43,36,37.11C473.8,309.64,462,325.39,437.75,325.39Z"/><polygon class="cls-1" points="531.4 362.29 647.06 362.29 647.06 326.55 571.58 326.55 571.58 305.3 641.77 305.3 641.77 269.57 571.58 269.57 571.58 250.01 647.06 250.01 647.06 214.28 531.4 214.28 531.4 362.29"/><path class="cls-1" d="M789.45,263.55c0-29.92-19.77-49.26-57.4-49.26h-66v148h40.17V309.74h2.22l35.63,52.54h47.36l-40.28-54.34C776.24,302.87,789.45,286.38,789.45,263.55Zm-57.83,13.11H706.26V250.33h25.37c9.83,0,17.23,4.23,17.23,13.21S741.46,276.66,731.63,276.66Z"/><polygon class="cls-1" points="837.53 340.78 845.72 340.78 845.72 362.29 850.99 362.29 850.99 340.78 859.18 340.78 859.18 335.85 837.53 335.85 837.53 340.78"/><polygon class="cls-1" points="884.23 335.85 877.38 353.69 870.5 335.85 862.78 335.85 862.78 362.29 868.05 362.29 868.05 342.48 874.58 359.74 880.15 359.74 886.68 342.33 886.68 362.29 891.95 362.29 891.95 335.85 884.23 335.85"/></g></g></svg>